<svg width="195" height="24" viewBox="0 0 195 24" fill="none" xmlns="http://www.w3.org/2000/svg">
<path d="M17 2H7C4.23858 2 2 4.23858 2 7V17C2 19.7614 4.23858 22 7 22H17C19.7614 22 22 19.7614 22 17V7C22 4.23858 19.7614 2 17 2Z" stroke="#C77D2D" stroke-width="2" stroke-linecap="round" stroke-linejoin="round"/>
<path d="M16 11.3701C16.1234 12.2023 15.9813 13.0523 15.5938 13.7991C15.2063 14.5459 14.5931 15.1515 13.8416 15.5297C13.0901 15.908 12.2384 16.0397 11.4078 15.906C10.5771 15.7723 9.80976 15.3801 9.21484 14.7852C8.61991 14.1903 8.22773 13.4229 8.09406 12.5923C7.9604 11.7616 8.09206 10.91 8.47032 10.1584C8.84858 9.40691 9.45418 8.7938 10.201 8.4063C10.9478 8.0188 11.7978 7.87665 12.63 8.00006C13.4789 8.12594 14.2648 8.52152 14.8717 9.12836C15.4785 9.73521 15.8741 10.5211 16 11.3701Z" stroke="#C77D2D" stroke-width="2" stroke-linecap="round" stroke-linejoin="round"/>
<path d="M17.5 6.5H17.51" stroke="#C77D2D" stroke-width="2" stroke-linecap="round" stroke-linejoin="round"/>
<path d="M80 3.00005C79.0424 3.67552 77.9821 4.19216 76.86 4.53005C76.2577 3.83756 75.4573 3.34674 74.567 3.12397C73.6767 2.90121 72.7395 2.95724 71.8821 3.2845C71.0247 3.61176 70.2884 4.19445 69.773 4.95376C69.2575 5.71308 68.9877 6.61238 69 7.53005V8.53005C67.2426 8.57561 65.5013 8.18586 63.931 7.39549C62.3607 6.60513 61.0103 5.43868 60 4.00005C60 4.00005 56 13 65 17C62.9405 18.398 60.4872 19.099 58 19C67 24 78 19 78 7.50005C77.9991 7.2215 77.9723 6.94364 77.92 6.67005C78.9406 5.66354 79.6608 4.39276 80 3.00005V3.00005Z" stroke="#C77D2D" stroke-width="2" stroke-linecap="round" stroke-linejoin="round"/>
<path d="M132 2H129C127.674 2 126.402 2.52678 125.464 3.46447C124.527 4.40215 124 5.67392 124 7V10H121V14H124V22H128V14H131L132 10H128V7C128 6.73478 128.105 6.48043 128.293 6.29289C128.48 6.10536 128.735 6 129 6H132V2Z" stroke="#C77D2D" stroke-width="2" stroke-linecap="round" stroke-linejoin="round"/>
<path d="M187 8C188.591 8 190.117 8.63214 191.243 9.75736C192.368 10.8826 193 12.4087 193 14V21H189V14C189 13.4696 188.789 12.9609 188.414 12.5858C188.039 12.2107 187.53 12 187 12C186.47 12 185.961 12.2107 185.586 12.5858C185.211 12.9609 185 13.4696 185 14V21H181V14C181 12.4087 181.632 10.8826 182.757 9.75736C183.883 8.63214 185.409 8 187 8V8Z" stroke="#C77D2D" stroke-width="2" stroke-linecap="round" stroke-linejoin="round"/>
<path d="M177 9H173V21H177V9Z" stroke="#C77D2D" stroke-width="2" stroke-linecap="round" stroke-linejoin="round"/>
<path d="M175 6C176.105 6 177 5.10457 177 4C177 2.89543 176.105 2 175 2C173.895 2 173 2.89543 173 4C173 5.10457 173.895 6 175 6Z" stroke="#C77D2D" stroke-width="2" stroke-linecap="round" stroke-linejoin="round"/>
</svg>
